<?xml version="1.0" encoding="UTF-8"?>
<svg id="Layer_1" data-name="Layer 1" xmlns="http://www.w3.org/2000/svg" viewBox="0 0 858.96 355.96">
  <polygon points="822.46 21.56 825.55 21.56 825.55 2.71 832.24 2.71 832.24 0 815.77 0 815.77 2.71 822.46 2.71 822.46 21.56"/>
  <polygon points="853.86 0 847.24 17.91 840.47 0 835.37 0 835.37 21.56 838.46 21.56 838.46 2.91 838.51 2.91 845.65 21.56 848.68 21.56 855.81 2.91 855.87 2.91 855.87 21.56 858.96 21.56 858.96 0 853.86 0"/>
  <path d="M820.09,334.27h0c-12.02-12.88-11.35-26.5-11.35-26.5V.01h-116.96v246.13c-1.45,23.32-24.29,29.27-36.98,28.88-18.13-.58-28.64-10.73-28.64-28.14l-.03-246.76h-113.93V.03c-26.65,0-47.56.09-80.28.09-62.33,0-121.19,9.55-141.01,61.24l-11.78-45.85C276.27,6.52,266.42.03,256.71.03H89.01s-36.02.01-36.02.01c-2.93,0-3.98.92-2.44,3,0,0,5.51,5.29,15.52,16.71,13.9,15.85,8.46,37.03,8.46,37.03L0,354.07h108.52l15.65-65.3h104.74l16.32,65.32h142.95c58.64,0,106.34-5.97,129.94-42.48,17.59,33.28,55.45,48.93,122.21,43.18,23.25-1.98,46.09-12.87,55.91-30.09l4.49,14.32c3.92,8.64,11.87,15.02,23.19,15.02h109.26c2.92,0,3.98-.84,2.44-2.94-.03.01-5.86-6.46-15.54-16.82ZM265.82,64.15c.74-.8,2.08-.91,3.01-.29l19.56,11.83-.05.27c-.66,3.07-1.23,6.2-1.65,9.31l-.09.77-20.56-19.07c-.41-.35-.67-.84-.74-1.37-.03-.54.15-1.06.52-1.45ZM246,89.54c.58-.91,1.91-1.22,2.92-.78l36.55,14.63v1.22c-.01,4.18.2,8.36.64,12.52l.09.83-39.45-25.67c-.48-.28-.83-.74-.99-1.27-.12-.51-.03-1.04.25-1.48ZM231.35,117.61c.4-.99,1.6-1.47,2.68-1.18l53.92,12.02.05.26c1.37,6.05,3.39,11.94,6.03,17.56l.47.97-61.92-27.09h0c-.53-.18-.96-.55-1.21-1.05-.22-.47-.23-1.01-.03-1.49ZM140.76,224.75l36.17-145.34,36.35,145.34h-72.53ZM440.25,272.82c-10.47,9.51-29.86,14.16-50.61,12.17-6.89-.66-15.5-3.24-24.28-7.29-.1-.05-43.9,54.05-43.9,54.05-.57.88-1.98,1.22-2.97.71-.52-.27-.91-.75-1.05-1.27-.13-.51-.05-1.04.21-1.49l30.13-60.57c.08-.13.12-.28.13-.43-.03-.18-.13-.39-.4-.57-.3-.21-.82-.08-1.04.19l-53.25,46.15c-.75.73-2.18.89-3.05.22-.45-.31-.75-.8-.8-1.35-.07-.47.06-.95.36-1.31l41.57-55.2s.18-.22.18-.4c.01-.08.05-.25-.27-.56-.3-.25-.73-.25-1.02,0l-61.39,37.16c-.96.64-2.23.53-3.07-.26-.36-.38-.55-.89-.51-1.41.09-.56.36-1.07.77-1.47l51.5-47.73c.16-.08.19-.22.21-.32.04-.21-.01-.43-.14-.6-.23-.3-.7-.36-1.02-.17l-67.64,27.05c-.96.49-2.4.14-2.97-.75-.29-.44-.37-.98-.23-1.49.16-.56.54-1.03,1.05-1.31l59.96-39.01c.18-.07.33-.22.39-.4.05-.13.05-.27-.01-.4-.17-.34-.42-.52-1.05-.38l-71.92,16.13c-1.12.22-2.4-.26-2.79-1.23-.21-.46-.2-.99.01-1.45.27-.51.71-.92,1.25-1.14l66.74-29.14c.16-.03.3-.13.39-.27.09-.16.11-.34.06-.52-.08-.35-.47-.51-.87-.44l-74.03,4.66c-1.1.08-2.3-.6-2.5-1.63-.09-.5.03-1.02.32-1.43.29-.44.75-.75,1.27-.86l71.59-18.37c.17-.05.31-.09.42-.23.12-.13.18-.31.16-.49-.04-.32-.36-.53-.75-.56l-73.86-6.93c-.57-.03-1.17-.27-1.56-.67-.36-.36-.56-.84-.57-1.35,0-1.08,1-1.96,2.14-2.02l73.95-6.94c.42.04.77-.18.79-.56,0-.13-.03-.27-.1-.39-.1-.17-.36-.26-.58-.3l-71.42-18.35c-.57-.1-1.08-.42-1.43-.89-.3-.41-.42-.94-.31-1.44.19-1.04,1.36-1.74,2.49-1.62l71.27,4.49.1.19c18.38,33.28,56.86,46.51,90.79,58.13h0c32.96,11.31,61.41,21.09,61.39,46.47,0,6.73-2.75,12.63-8.2,17.6ZM545.12,314.76c-.9.65-2.14.61-2.98-.12l-16.82-14.64.12-.27c1.25-2.93,2.35-5.91,3.31-8.95l.23-.73,16.5,21.92c.32.4.48.9.44,1.41-.06.55-.34,1.05-.79,1.37ZM569.58,292.83c-.74.78-2.1.96-2.97.32l-33.72-20.41.04-.26c.7-4.49,1.21-9.16,1.53-13.98l.05-.82h0s0,0,0,0h0s34.9,32.36,34.9,32.36c.39.35.63.82.69,1.34.05.54-.14,1.07-.52,1.45ZM589.42,267.46c-.67.91-1.87,1.23-2.91.79l-51.65-20.71.03-2.76c0-5.14-.36-10.17-1.06-14.95l-.13-.88h0s0,0,0,0h0s55,35.77,55,35.77c.45.3.79.73.96,1.25.12.51.03,1.06-.25,1.5ZM615.47,179.93c-.42.4-.98.63-1.56.65l-73.84,6.93c-.37-.02-.71.24-.77.61-.01.16.04.32.14.44.13.14.3.23.49.26l71.39,18.33c.56.1,1.05.42,1.37.88.3.41.42.93.32,1.43-.22,1.04-1.28,1.74-2.44,1.65l-74.04-4.7c-.39-.09-.79.12-.88.43-.05.19-.03.39.06.56.09.14.22.24.38.29l66.73,29.17c.5.21.92.58,1.18,1.06.23.46.25.99.05,1.47-.43,1-1.54,1.54-2.59,1.26l-68.42-15.33-.05-.25c-4.5-22.19-17.02-40.1-38.23-54.72-18.51-12.78-41.09-21.3-61.02-28.83-15.28-5.76-29.69-11.21-40.09-17.72-11.62-7.26-17.03-15.14-17.03-24.73,0-6.98,2.36-12.8,6.98-17.31,8-7.81,22.62-11.67,42.26-11.19h.83c9.6.01,30.25,3.58,42.61,9.6l44.67-54.93c.57-.88,1.96-1.18,2.96-.66.51.26.89.72,1.04,1.27.14.5.07,1.04-.21,1.48l-30.34,61c-.06.14-.08.29-.05.44.01.17.13.3.31.4.31.21.74.05.99-.23l53.5-46.34c.71-.79,2.18-.91,3.06-.23.46.31.75.82.79,1.37,0,.53-.17,1.05-.51,1.47l-41.63,55.26c-.13.13-.18.31-.18.47,0,.14.08.26.19.38.29.25.72.26,1.01.01l61.89-37.39c.86-.66,2.14-.48,2.88.32.37.39.56.93.52,1.47-.07.52-.33,1-.73,1.35l-51.76,47.98c-.12.08-.2.21-.23.35-.02.19.04.38.16.53.21.29.61.32.95.12l67.97-27.15c1.05-.45,2.36-.14,2.96.77.27.44.35.98.22,1.48-.16.54-.52,1-1,1.28l-60.22,39.16c-.15.09-.27.22-.36.38-.08.16-.04.36.04.51.14.3.64.39,1,.22l72.12-16.1c1.08-.26,2.4.18,2.79,1.17.2.47.19,1.01-.03,1.48-.23.52-.68.92-1.22,1.1l-66.83,29.18c-.15.03-.28.13-.35.26-.09.15-.11.34-.06.51.1.35.47.53.84.44l74.1-4.66c1.17-.09,2.3.57,2.5,1.62.1.5-.01,1.02-.31,1.43-.33.48-.84.81-1.41.92l-71.44,18.31c-.16.01-.31.09-.42.21-.1.15-.16.33-.14.51.03.34.34.58.7.56l73.94,6.94c.56.04,1.09.28,1.49.67h0c.37.37.58.86.61,1.38-.01.51-.23,1-.6,1.35Z"/>
</svg>